# xmcd
#
# Track frame offsets:
#	182
#	13090
#	30602
#	44122
#	62307
#	75942
#	90817
#	109690
#	125245
#	137637
#	154967
#
# Disc length: 2282 seconds
#
# Revision: 3
# Processed by: cddbd v1.5.1PL2 Copyright (c) Steve Scherf et al.
# Submitted via: dBpowerAMP V4.0
#
DISCID=8408e80b
DTITLE=Brett James - Brett James
DYEAR=1995
DGENRE=Country
TTITLE0=Wake Up And Smell The Whiskey
TTITLE1=Many Tears Ago
TTITLE2=Worth The Fall
TTITLE3=She's Killin Me
TTITLE4=If I Could See Love
TTITLE5=Female Bonding
TTITLE6=Dark Side Of The Moon
TTITLE7=Just Like We Never Happened
TTITLE8=Thrill Of You Chase
TTITLE9=The Way That You Love
TTITLE10=Enjoy The Ride
EXTD=
EXTT0=
EXTT1=
EXTT2=
EXTT3=
EXTT4=
EXTT5=
EXTT6=
EXTT7=
EXTT8=
EXTT9=
EXTT10=
PLAYORDER=
